<svg xmlns="http://www.w3.org/2000/svg" version="1.1" xmlns:xlink="http://www.w3.org/1999/xlink" xmlns:svgjs="http://svgjs.dev/svgjs" width="1500" height="1500" viewBox="0 0 1500 1500"><rect width="1500" height="1500" fill="#000000"></rect><g transform="matrix(0.6666666666666666,0,0,0.6666666666666666,249.39393939393938,650.8810068252468)"><svg viewBox="0 0 396 78" data-background-color="#e0662e" preserveAspectRatio="xMidYMid meet" height="295" width="1500" xmlns="http://www.w3.org/2000/svg" xmlns:xlink="http://www.w3.org/1999/xlink"><g id="tight-bounds" transform="matrix(1,0,0,1,0.2400000000000091,0.31160068286817477)"><svg viewBox="0 0 395.52 77.37679863426362" height="77.37679863426362" width="395.52"><g><svg viewBox="0 0 395.52 77.37679863426362" height="77.37679863426362" width="395.52"><g transform="matrix(1,0,0,1,0,47.02076600223271)"><svg viewBox="0 0 395.52 30.35603263203091" height="30.35603263203091" width="395.52"><g id="textblocktransform"><svg viewBox="0 0 395.52 30.35603263203091" height="30.35603263203091" width="395.52" id="textblock"><g><svg viewBox="0 0 395.52 30.35603263203091" height="30.35603263203091" width="395.52"><g transform="matrix(1,0,0,1,0,0)"><svg width="395.52" viewBox="3.25 -35.35 465.76 35.75" height="30.35603263203091" data-palette-color="#ffffff"><path d="M17.8 0L17.8 0 3.25 0 3.25-33.7 16.35-33.7Q21.9-33.7 24.8-31.08 27.7-28.45 27.7-24.4L27.7-24.4Q27.7-21.75 26.3-19.75 24.9-17.75 22.65-17.05L22.65-17.05Q28.5-15.3 28.5-9.15L28.5-9.15Q28.5-5.15 25.63-2.58 22.75 0 17.8 0ZM15.05-27.55L15.05-27.55 10.95-27.55 10.95-20 13.8-20Q16.8-20 18.32-21.1 19.85-22.2 19.85-24L19.85-24Q19.85-27.55 15.05-27.55ZM15.05-13.95L15.05-13.95 10.95-13.95 10.95-6.15 15-6.15Q20.7-6.15 20.7-10.05 20.7-13.95 15.05-13.95ZM56.5-16.15L56.5 0 49.2 0 49.2-15Q49.2-17.2 48.1-18.45 47-19.7 45.25-19.7L45.25-19.7Q44.5-19.7 43.82-19.48 43.15-19.25 42.35-18.68 41.55-18.1 41.05-16.73 40.55-15.35 40.55-13.4L40.55-13.4 40.55 0 33.25 0 33.25-35.35 40.55-35.35 40.55-21.05Q42.5-25.6 48.15-25.6L48.15-25.6Q51.85-25.6 54.17-23.25 56.5-20.9 56.5-16.15L56.5-16.15ZM71.55-5L71.55-5Q73.09-5 73.95-5.95 74.8-6.9 74.8-8.55L74.8-8.55 74.8-10.4 72.45-10.4Q70.59-10.4 69.59-9.6 68.59-8.8 68.59-7.55L68.59-7.55Q68.59-5 71.55-5ZM75.15 0L75.15-3.1Q73.55 0.15 68.84 0.15L68.84 0.15Q65.15 0.15 63.07-1.95 61-4.05 61-7.2L61-7.2Q61-10.85 63.67-12.88 66.34-14.9 71.59-14.9L71.59-14.9 74.8-14.9 74.8-16.65Q74.8-19.85 70.55-19.85L70.55-19.85Q66.45-19.85 62.95-17.55L62.95-17.55 62.95-24.1Q65.95-25.8 71.59-25.8L71.59-25.8Q77-25.8 79.65-23.48 82.3-21.15 82.3-16.25L82.3-16.25 82.3 0 75.15 0ZM95.29-12.65L95.29 0 87.99 0 88.04-25.35 95.29-25.35 95.29-20.65Q95.99-22.85 97.62-24.18 99.24-25.5 101.39-25.5L101.39-25.5Q102.59-25.5 103.29-25.3L103.29-25.3 103.29-18.4Q102.09-18.95 100.54-18.95L100.54-18.95Q98.19-18.95 96.74-17.23 95.29-15.5 95.29-12.65L95.29-12.65ZM115.84-5L115.84-5Q117.39-5 118.24-5.95 119.09-6.9 119.09-8.55L119.09-8.55 119.09-10.4 116.74-10.4Q114.89-10.4 113.89-9.6 112.89-8.8 112.89-7.55L112.89-7.55Q112.89-5 115.84-5ZM119.44 0L119.44-3.1Q117.84 0.15 113.14 0.15L113.14 0.15Q109.44 0.15 107.37-1.95 105.29-4.05 105.29-7.2L105.29-7.2Q105.29-10.85 107.97-12.88 110.64-14.9 115.89-14.9L115.89-14.9 119.09-14.9 119.09-16.65Q119.09-19.85 114.84-19.85L114.84-19.85Q110.74-19.85 107.24-17.55L107.24-17.55 107.24-24.1Q110.24-25.8 115.89-25.8L115.89-25.8Q121.29-25.8 123.94-23.48 126.59-21.15 126.59-16.25L126.59-16.25 126.59 0 119.44 0ZM147.14-6.6L147.14-0.55Q145.29 0.25 142.14 0.25L142.14 0.25Q133.49 0.25 133.49-8.4L133.49-8.4 133.49-20 129.84-20 129.84-25.35 133.49-25.35 133.49-31.35 140.79-31.35 140.79-25.35 146.69-25.35 146.69-20 140.79-20 140.79-8.35Q140.79-7 141.56-6.3 142.34-5.6 143.59-5.6L143.59-5.6Q145.59-5.6 147.14-6.6L147.14-6.6ZM170.79-18.85L170.79-12.7 159.64-12.7 159.64 0 151.89 0 151.89-33.7 172.44-33.7 172.44-27.55 159.64-27.55 159.64-18.85 170.79-18.85ZM184.18-12.65L184.18 0 176.88 0 176.93-25.35 184.18-25.35 184.18-20.65Q184.88-22.85 186.51-24.18 188.13-25.5 190.28-25.5L190.28-25.5Q191.48-25.5 192.18-25.3L192.18-25.3 192.18-18.4Q190.98-18.95 189.43-18.95L189.43-18.95Q187.08-18.95 185.63-17.23 184.18-15.5 184.18-12.65L184.18-12.65ZM215.33-7.55L215.33-1.45Q212.73 0.25 207.38 0.25L207.38 0.25Q201.13 0.25 197.66-3.38 194.18-7 194.18-12.7L194.18-12.7Q194.18-18.75 197.56-22.18 200.93-25.6 205.88-25.6L205.88-25.6Q210.98-25.6 213.93-22.63 216.88-19.65 216.88-13.75L216.88-13.75Q216.88-12.6 216.48-9.8L216.48-9.8 201.58-9.8Q202.33-7.7 204.18-6.55 206.03-5.4 208.63-5.4L208.63-5.4Q212.48-5.4 215.33-7.55L215.33-7.55ZM206.18-20.05L206.18-20.05Q204.43-20.05 203.08-18.78 201.73-17.5 201.28-15L201.28-15 210.08-15 210.08-15.6Q209.73-20.05 206.18-20.05ZM241.98-7.55L241.98-1.45Q239.38 0.25 234.03 0.25L234.03 0.25Q227.78 0.25 224.3-3.38 220.83-7 220.83-12.7L220.83-12.7Q220.83-18.75 224.2-22.18 227.58-25.6 232.53-25.6L232.53-25.6Q237.63-25.6 240.58-22.63 243.53-19.65 243.53-13.75L243.53-13.75Q243.53-12.6 243.13-9.8L243.13-9.8 228.23-9.8Q228.98-7.7 230.83-6.55 232.68-5.4 235.28-5.4L235.28-5.4Q239.13-5.4 241.98-7.55L241.98-7.55ZM232.83-20.05L232.83-20.05Q231.08-20.05 229.73-18.78 228.38-17.5 227.93-15L227.93-15 236.73-15 236.73-15.6Q236.38-20.05 232.83-20.05ZM256.28-35.35L256.28 0 248.98 0 248.98-35.35 256.28-35.35ZM271.82-5L271.82-5Q273.37-5 274.22-5.95 275.07-6.9 275.07-8.55L275.07-8.55 275.07-10.4 272.72-10.4Q270.87-10.4 269.87-9.6 268.87-8.8 268.87-7.55L268.87-7.55Q268.87-5 271.82-5ZM275.42 0L275.42-3.1Q273.82 0.15 269.12 0.15L269.12 0.15Q265.42 0.15 263.35-1.95 261.27-4.05 261.27-7.2L261.27-7.2Q261.27-10.85 263.95-12.88 266.62-14.9 271.87-14.9L271.87-14.9 275.07-14.9 275.07-16.65Q275.07-19.85 270.82-19.85L270.82-19.85Q266.72-19.85 263.22-17.55L263.22-17.55 263.22-24.1Q266.22-25.8 271.87-25.8L271.87-25.8Q277.27-25.8 279.92-23.48 282.57-21.15 282.57-16.25L282.57-16.25 282.57 0 275.42 0ZM311.57-16.45L311.57 0 304.27 0 304.27-15.1Q304.27-17.35 303.22-18.53 302.17-19.7 300.27-19.7L300.27-19.7Q298.27-19.7 296.95-18.13 295.62-16.55 295.62-13.4L295.62-13.4 295.62 0 288.32 0 288.32-25.35 295.62-25.35 295.62-21.05Q296.57-23.15 298.55-24.38 300.52-25.6 303.27-25.6L303.27-25.6Q307.17-25.6 309.37-23.28 311.57-20.95 311.57-16.45L311.57-16.45ZM336.27-7.3L336.27-1.2Q333.32 0.4 329.17 0.4L329.17 0.4Q323.47 0.4 319.77-3.23 316.07-6.85 316.07-12.6L316.07-12.6Q316.17-18.3 319.77-22.03 323.37-25.75 329.62-25.75L329.62-25.75Q333.47-25.75 336.27-24.3L336.27-24.3 336.27-18.05Q333.62-19.7 330.37-19.7L330.37-19.7Q327.32-19.7 325.42-17.88 323.52-16.05 323.47-12.6L323.47-12.6Q323.67-9.25 325.47-7.4 327.27-5.55 330.22-5.55L330.22-5.55Q333.37-5.55 336.27-7.3L336.27-7.3ZM360.67-7.55L360.67-1.45Q358.07 0.25 352.72 0.25L352.72 0.25Q346.47 0.25 342.99-3.38 339.52-7 339.52-12.7L339.52-12.7Q339.52-18.75 342.89-22.18 346.27-25.6 351.22-25.6L351.22-25.6Q356.32-25.6 359.27-22.63 362.22-19.65 362.22-13.75L362.22-13.75Q362.22-12.6 361.82-9.8L361.82-9.8 346.92-9.8Q347.67-7.7 349.52-6.55 351.37-5.4 353.97-5.4L353.97-5.4Q357.82-5.4 360.67-7.55L360.67-7.55ZM351.52-20.05L351.52-20.05Q349.77-20.05 348.42-18.78 347.07-17.5 346.62-15L346.62-15 355.42-15 355.42-15.6Q355.07-20.05 351.52-20.05ZM407.96-33.7L407.96 0 400.21 0 400.21-13.45 387.86-13.45 387.86 0 380.16 0 380.16-33.7 387.86-33.7 387.86-20 400.21-20 400.21-33.7 407.96-33.7ZM437.21-25.35L437.21 0 429.91 0 429.91-4.05Q427.91 0.2 422.21 0.2L422.21 0.2Q418.31 0.2 416.13-1.98 413.96-4.15 413.96-8.4L413.96-8.4 413.96-25.35 421.26-25.35 421.26-10.05Q421.26-5.6 425.16-5.6L425.16-5.6Q429.91-5.6 429.91-11.95L429.91-11.95 429.91-25.35 437.21-25.35ZM450.51-3.95L450.51 0 443.21 0 443.21-35.35 450.51-35.35 450.51-21.45Q453.11-25.65 458.06-25.65L458.06-25.65Q462.81-25.65 465.91-22.2 469.01-18.75 469.01-12.75L469.01-12.75Q469.01-7.4 466.03-3.55 463.06 0.3 458.11 0.3L458.11 0.3Q453.06 0.3 450.51-3.95L450.51-3.95ZM450.51-12.95L450.51-12.95Q450.51-9.7 452.06-7.75 453.61-5.8 456.11-5.8L456.11-5.8Q458.41-5.8 460.01-7.68 461.61-9.55 461.61-12.6L461.61-12.6Q461.61-15.9 460.03-17.75 458.46-19.6 456.16-19.6 453.86-19.6 452.18-17.85 450.51-16.1 450.51-12.95Z" opacity="1" transform="matrix(1,0,0,1,0,0)" fill="#ffffff" class="wordmark-text-0" data-fill-palette-color="primary" id="text-0"></path></svg></g></svg></g></svg></g></svg></g><g transform="matrix(1,0,0,1,175.14131402465802,0)"><svg viewBox="0 0 45.23737195068392 39.85443524259338" height="39.85443524259338" width="45.23737195068392"><g><svg xmlns="http://www.w3.org/2000/svg" xmlns:xlink="http://www.w3.org/1999/xlink" version="1.1" x="0" y="0" viewBox="6.3 11.5 87.4 77" style="enable-background:new 0 0 100 100;" xml:space="preserve" height="39.85443524259338" width="45.23737195068392" class="icon-icon-0" data-fill-palette-color="accent" id="icon-0"><path d="M72.3 12.3L71.9 11.5H28.2L6.3 50 28.1 88.5H71.8L93.7 50zM33.3 25.3L9.9 47.7 28.5 14.9zM70.7 14.8L77.1 50.5 36.9 25.8zM35.5 27.3L76.5 52.5 35.5 75.8zM77 54.5L69.8 85.3 37.2 77.2zM33.5 75L9.9 50.5 33.5 27.8zM33.2 77.6L28.6 85.3 11.5 55.1zM35 78.6L66.4 86.5H30.2zM79.3 53.3L90.9 50.8 72.1 84zM90.7 48.9L79.3 51.4 73.4 18.3zM35 24.3L30 13.5H68.2z" fill="#ffffff" data-fill-palette-color="accent"></path></svg></g></svg></g><g></g></svg></g><defs></defs></svg><rect width="395.52" height="77.37679863426362" fill="none" stroke="none" visibility="hidden"></rect></g></svg></g></svg>